<?xml version="1.0" encoding="utf-8"?>
<svg version="1.1" id="Слой_1" xmlns="http://www.w3.org/2000/svg" xmlns:xlink="http://www.w3.org/1999/xlink" x="0px" y="0px"
	 viewBox="0 0 250 250" style="enable-background:new 0 0 250 250;" xml:space="preserve">
<style type="text/css">
	.st0{fill:#222222;}
</style>
<path class="st0" d="M137,149l-33,39c0,0-14,5-13-11l34.5-40.3L91,95c0,0-3-12.5,12.5-12.5l33.5,39.6L170,83c0,0,12-1,12,12
	l-34.7,40.6l34.7,40.8c0,0,2.1,12.4-12.4,12.4L137,149z"/>
<path class="st0" d="M234,56H73L37,163l-12-35c0,0-10-3-13,5l19,58c0,0,5.7,7,12.4,0L82,71l152-0.9C234,70.1,243,63,234,56z"/>
</svg>
