<?xml version="1.0" encoding="utf-8"?>
<!-- Generator: Adobe Illustrator 28.0.0, SVG Export Plug-In . SVG Version: 6.00 Build 0)  -->
<svg version="1.1" id="Слой_1" xmlns="http://www.w3.org/2000/svg" xmlns:xlink="http://www.w3.org/1999/xlink" x="0px" y="0px"
	 viewBox="0 0 1920 1080" style="enable-background:new 0 0 1920 1080;" xml:space="preserve">
<style type="text/css">
	.st0{fill:#222222;}
</style>
<g>
	<g>
		<path class="st0" d="M353.3,657.2V489.6h47.4v130h79.7v37.6H353.3z"/>
		<path class="st0" d="M565.5,659.3c-15.5,0-28.9-2.9-40.3-8.7c-11.4-5.8-20.3-13.8-26.6-23.9c-6.3-10.1-9.5-21.6-9.5-34.4
			c0-13.1,3.1-24.7,9.2-34.8c6.1-10.1,14.6-18.1,25.4-23.8c10.8-5.7,23-8.6,36.7-8.6c12.8,0,24.4,2.7,34.8,8
			c10.5,5.3,18.8,13,25.1,23c6.3,10,9.5,22.1,9.5,36.5c0,1.6-0.1,3.4-0.2,5.5c-0.2,2.1-0.3,4-0.5,5.7H526.4v-23.9H605l-17.2,6.7
			c0.2-5.7-0.9-10.8-3.2-15.2c-2.3-4.4-5.5-7.8-9.5-10.2c-4-2.4-8.7-3.6-14.1-3.6c-5.6,0-10.5,1.2-14.6,3.6
			c-4.2,2.4-7.3,5.8-9.5,10.2c-2.2,4.4-3.2,9.5-3.2,15.4v6.9c0,6.4,1.3,11.9,4,16.5c2.6,4.6,6.4,8.2,11.4,10.7
			c4.9,2.5,10.9,3.7,17.7,3.7c6.5,0,12-0.9,16.5-2.8c4.5-1.8,8.9-4.7,13.4-8.5l23.7,25.1c-6.1,6.7-13.6,11.9-22.7,15.4
			C588.4,657.5,577.8,659.3,565.5,659.3z"/>
		<path class="st0" d="M691.9,659.3c-10.2,0-19-1.8-26.2-5.3c-7.3-3.5-12.8-8.3-16.5-14.4c-3.8-6.1-5.6-12.8-5.6-20.1
			c0-8,2-14.9,6.1-20.8c4.1-5.9,10.4-10.4,18.9-13.5c8.5-3.1,19.4-4.7,32.7-4.7h30.6v23.9h-24.4c-7.3,0-12.5,1.1-15.4,3.4
			c-3,2.2-4.4,5.4-4.4,9.6c0,3.8,1.5,7,4.5,9.5c3,2.5,7.2,3.7,12.4,3.7c5.1,0,9.7-1.2,13.8-3.7c4.1-2.5,7-6.3,8.7-11.4l6.2,16.8
			c-2.4,8.9-7.1,15.7-14,20.2C712.3,657.1,703.2,659.3,691.9,659.3z M730.2,657.2V633l-3.1-6v-44.5c0-7.2-2.2-12.7-6.6-16.6
			c-4.4-3.9-11.4-5.9-20.9-5.9c-6.2,0-12.6,1-19,3.1c-6.5,2.1-11.9,4.7-16.4,7.9L649,540.4c7.3-4.8,16.2-8.5,26.5-11.3
			c10.3-2.7,20.5-4.1,30.8-4.1c21.1,0,37.4,4.9,49,14.6c11.6,9.7,17.4,24.9,17.4,45.5v72.1H730.2z"/>
		<path class="st0" d="M801.3,657.2v-130h43.6v38.1l-6.7-10.8c4-9.7,10.3-17.1,18.8-22c8.5-4.9,19-7.4,31.2-7.4v41.2
			c-2.1-0.3-3.9-0.5-5.5-0.6c-1.6-0.1-3.2-0.1-4.8-0.1c-9.3,0-16.8,2.5-22.5,7.5c-5.7,5-8.6,13.2-8.6,24.5v59.6H801.3z"/>
		<path class="st0" d="M991.8,525c10.1,0,19.2,2.1,27.3,6.2c8.1,4.2,14.6,10.5,19.3,18.9c4.7,8.5,7.1,19.4,7.1,32.8v74.2h-45.7
			v-66.8c0-9.3-1.9-16-5.6-20.2c-3.8-4.2-8.8-6.3-15.2-6.3c-4.9,0-9.4,1.1-13.4,3.2c-4,2.2-7.1,5.5-9.3,9.9
			c-2.2,4.5-3.4,10.4-3.4,17.7v62.5h-45.5v-130h43.6v37.1l-8.6-10.8c4.9-9.3,11.7-16.3,20.3-21.2C971.3,527.5,981,525,991.8,525z"/>
		<path class="st0" d="M1146,657.2V489.6h39l69.2,114h-20.6l67.8-114h39l0.2,167.6h-43.6l-0.5-101.3h7.4l-50.5,84.8h-21.1l-52-84.8
			h9.1v101.3H1146z"/>
		<path class="st0" d="M1413.2,659.3c-10.2,0-19-1.8-26.2-5.3c-7.3-3.5-12.8-8.3-16.5-14.4c-3.8-6.1-5.6-12.8-5.6-20.1
			c0-8,2-14.9,6.1-20.8c4.1-5.9,10.4-10.4,18.9-13.5c8.5-3.1,19.4-4.7,32.7-4.7h30.6v23.9h-24.4c-7.3,0-12.5,1.1-15.4,3.4
			c-3,2.2-4.4,5.4-4.4,9.6c0,3.8,1.5,7,4.5,9.5c3,2.5,7.2,3.7,12.4,3.7c5.1,0,9.7-1.2,13.8-3.7c4.1-2.5,7-6.3,8.7-11.4l6.2,16.8
			c-2.4,8.9-7.1,15.7-14,20.2C1433.7,657.1,1424.5,659.3,1413.2,659.3z M1451.5,657.2V633l-3.1-6v-44.5c0-7.2-2.2-12.7-6.6-16.6
			c-4.4-3.9-11.4-5.9-20.9-5.9c-6.2,0-12.6,1-19,3.1c-6.5,2.1-11.9,4.7-16.4,7.9l-15.1-30.6c7.3-4.8,16.2-8.5,26.5-11.3
			c10.3-2.7,20.5-4.1,30.8-4.1c21.1,0,37.4,4.9,49,14.6c11.6,9.7,17.4,24.9,17.4,45.5v72.1H1451.5z"/>
		<path class="st0" d="M1509,566.2v-34h94.1v34H1509z M1580.5,659.3c-16.6,0-29.5-4.1-38.8-12.3c-9.3-8.2-13.9-20.6-13.9-37.2V498.2
			h45.5v110.8c0,4.9,1.2,8.7,3.7,11.3c2.5,2.6,5.8,3.8,9.9,3.8c5.3,0,9.9-1.4,13.9-4.1l11.5,31.6c-4.2,2.7-9,4.7-14.5,5.9
			C1592.4,658.7,1586.6,659.3,1580.5,659.3z"/>
		<path class="st0" d="M1714.4,525c10.1,0,19.2,2.1,27.3,6.2c8.1,4.2,14.6,10.5,19.3,18.9c4.7,8.5,7.1,19.4,7.1,32.8v74.2h-45.7
			v-66.8c0-9.3-1.9-16-5.6-20.2c-3.8-4.2-8.8-6.3-15.2-6.3c-4.9,0-9.4,1.1-13.4,3.2c-4,2.2-7.1,5.5-9.3,9.9
			c-2.2,4.5-3.4,10.4-3.4,17.7v62.5h-45.5V479.5h45.5v84.8l-10.5-10.8c4.9-9.3,11.7-16.3,20.3-21.2
			C1693.8,527.5,1703.5,525,1714.4,525z"/>
	</g>
</g>
<path class="st0" d="M138.9,554c-1.5-0.1-6.7-0.1-11.7,3.4c-4.9,3.4-6.5,8.1-7,9.6c36.3,47.3,72.6,94.7,108.9,142
	c2.6,0.7,7.1,1.5,12.5,0.9c5.3-0.6,9.4-2.4,11.8-3.7c22-91.2,44-182.4,66-273.6h1528c7.8-0.6,6.8-21.3-0.4-24.8l-1544.4-2.6l-67,274
	L138.9,554z"/>
</svg>
